# xmcd
#
# Track frame offsets:
#	150
#	13270
#	24550
#	34577
#	46275
#	58070
#	72777
#	85062
#	97592
#	108857
#	121100
#	133077
#	143692
#	157052
#	174510
#	188532
#	198977
#	212615
#	226387
#
# Disc length: 3197
#
# Revision: 2
# Processed by: cddbd v1.5.1PL0 Copyright (c) Steve Scherf et al.
# Submitted via: audiograbber 1.83.01
# Normalized: r1:DSETVAR1
#
DISCID=f30c7b13
DTITLE=Various Artist - 38 Soulklassiker 1960-69 CD #2
DYEAR=1969
DGENRE=Soul
TTITLE0=Booker T and The MG's - Green Onions
TTITLE1=LaVern Baker - See See Rider
TTITLE2=Betty Everett - It's In His Kiss (The Shoop Shoop Song)
TTITLE3=Diana Ross and The Supremes - My World Is Empty Without You
TTITLE4=Stevie Wonder - I Was Made To Love Her
TTITLE5=Marvin Gaye - I Heard It Through the Grapevine
TTITLE6=Otis Redding - (Sittin' On) The Dock Of The Bay
TTITLE7=Aretha Frankling - (You Make Me Feel Like) A Natural Woman
TTITLE8=Irma Thomas - Wish Someone Would Care
TTITLE9=Bessie Banks - Go Now
TTITLE10=The Impressions - People Get Ready
TTITLE11=William Bell - I Forgot To Be Your Lover
TTITLE12=The Temptations - My Girl
TTITLE13=Brook Benton - Rainy Night In Georgia
TTITLE14=Aaron Neville - Tell It Like It Is
TTITLE15=Little Anthony and The Imperials - Hurt So Bad
TTITLE16=The Drifters - On Broadway
TTITLE17=Jimmy Ruffin - What Becomes Of The Broken Hearted
TTITLE18=Marvin Gaye and Tammi Terrell - Your Precious Love
EXTD=
EXTT0=
EXTT1=
EXTT2=
EXTT3=
EXTT4=
EXTT5=
EXTT6=
EXTT7=
EXTT8=
EXTT9=
EXTT10=
EXTT11=
EXTT12=
EXTT13=
EXTT14=
EXTT15=
EXTT16=
EXTT17=
EXTT18=
PLAYORDER=
